<svg width="991" height="412" viewBox="0 0 991 412" xmlns="http://www.w3.org/2000/svg"><path d="M53.8475883,2.64997974 L963.026705,47.3930465 C985.091392,48.4789071 1002.09809,67.2461341 1001.01223,89.3108212 C1000.82945,93.0249803 1000.12963,96.6955078 998.932999,100.216368 L923.627028,321.789705 C919.160137,334.932674 916.654228,339.375927 913.054963,343.808801 C909.455698,348.241675 905.127721,351.591275 899.933847,353.963773 C894.739973,356.336271 889.810257,357.647753 875.967062,358.675713 L148.145842,412.721843 C132.074146,413.915286 126.125694,412.927236 119.867918,410.582787 C113.610143,408.238338 108.35502,404.440067 104.165783,399.233678 C99.9765462,394.027289 97.1722724,388.68909 93.2635812,373.054325 L13.0757637,52.3030549 C7.71781466,30.8712586 20.7482424,9.15387902 42.1800387,3.79592994 C45.9918318,2.84298166 49.9232312,2.45685193 53.8475883,2.64997974 Z" transform="translate(-11 -2)" fill="#232639" fill-rule="evenodd"/></svg>